<svg data-v-0dd9719b="" version="1.0" xmlns="http://www.w3.org/2000/svg" xmlns:xlink="http://www.w3.org/1999/xlink" width="100%" height="100%" viewBox="0 0 340.000000 250.000000" preserveAspectRatio="xMidYMid meet" color-interpolation-filters="sRGB" style="margin: auto;"> <rect data-v-0dd9719b="" x="0" y="0" width="100%" height="100%" fill="#fff" fill-opacity="1" class="background"></rect> <rect data-v-0dd9719b="" x="0" y="0" width="100%" height="100%" fill="url(#watermark)" fill-opacity="1" class="watermarklayer"></rect> <g data-v-0dd9719b="" fill="#0083ce" class="icon-text-wrapper icon-svg-group iconsvg" transform="translate(44.73500061035156,94.82468223945176)"><g class="iconsvg-imagesvg" transform="translate(0,0)"><g><rect fill="#0083ce" fill-opacity="0" stroke-width="2" x="0" y="0" width="60" height="60.350637202144455" class="image-rect"></rect> <svg x="0" y="0" width="60" height="60.350637202144455" filtersec="colorsb161522951" class="image-svg-svg primary" style="overflow: visible;"><svg xmlns="http://www.w3.org/2000/svg" viewBox="-9.5367431640625e-7 0.049999237060546875 59.86000061035156 60.209999084472656"><g><g><path d="M17.46 25.44a3.51 3.51 0 0 1-2-6.55 31.91 31.91 0 0 1-.46-3.73l-15 15 10 10a30.47 30.47 0 0 1 9.71.27A30.91 30.91 0 0 1 22 32.71a30.77 30.77 0 0 1-4.54-7.27z" fill="#0083ce"></path><path d="M19.49 41.87a28.93 28.93 0 0 0-8.14-.39l8.31 8.31a30.49 30.49 0 0 1-.17-7.92z" fill="#0b318f"></path><path d="M20.54 20.9a3.51 3.51 0 0 1-1.6 4.1 28.58 28.58 0 0 0 3.75 6.22A30.2 30.2 0 0 1 34 19.08a3.51 3.51 0 0 1 6.24-2.85 29.69 29.69 0 0 1 4.93-1.18l-15-15-13.72 13.64a27.38 27.38 0 0 0 .46 4.75 3.51 3.51 0 0 1 3.63 2.46zM23.08 34a28.87 28.87 0 0 0-1.9 6.69 31 31 0 0 1 5.92 2.11 3.52 3.52 0 0 1 5.82 3.63A30.41 30.41 0 0 1 38.37 52l8.4-8.38A30.53 30.53 0 0 1 23.08 34z" fill="#00a0e9"></path><path d="M46.13 16.4a29 29 0 0 0-5.67 1.21 3.5 3.5 0 0 1-6.22 2.86 28.79 28.79 0 0 0-10.89 12A28.94 28.94 0 0 0 48 42l11.86-11.88z" fill="#0b318f"></path><path d="M32.1 47.71a3.51 3.51 0 0 1-5.82-3.62 29 29 0 0 0-5.3-1.9 28.38 28.38 0 0 0 .62 9.52l8.53 8.55 7.15-7.15a28.12 28.12 0 0 0-5.18-5.4z" fill="#0083ce"></path></g></g></svg></svg> <!----></g></g> <g transform="translate(67,13.115318298339844)"><g data-gra="path-name" fill-rule="" class="tp-name iconsvg-namesvg"><g transform="scale(1)"><g><path d="M4.22 3.49Q2.15 3.49 0.71 2.33-0.73 1.18-0.73-1.99L-0.73-1.99Q-0.73-4.67 0.16-6.82 1.05-8.97 2.6-8.97L2.6-8.97Q3.16-8.97 4.18-8.52L4.18-8.52Q2.64-4.79 2.64-1.99L2.64-1.99Q2.64-0.37 3.31 0.57 3.98 1.5 5.15 1.5L5.15 1.5Q6.17 1.5 6.98 0.61 7.79-0.28 8.6-2.47L8.6-2.47Q9.98-6.41 11.76-13.96 13.55-21.5 14.44-26.53L14.44-26.53Q11.6-26.49 9.68-26.27 7.75-26.04 5.76-25.6L5.76-25.6Q6.04-27.51 7.77-28.32 9.49-29.13 13.06-29.13L13.06-29.13Q15.29-29.13 17.89-28.84 20.49-28.56 22.39-28.24L22.39-28.24Q21.78-27.26 20.77-26.92 19.76-26.57 18.7-26.57L18.7-26.57 16.35-26.53Q16.88-25.84 16.88-24.95L16.88-24.95Q16.84-23.85 16.04-19.59 15.25-15.33 14-10.55 12.74-5.76 11.28-2.56L11.28-2.56Q9.78 0.77 8.03 2.13 6.29 3.49 4.22 3.49L4.22 3.49ZM38.34 4.91Q36.84 4.91 34.6 2.37 32.37-0.16 30.14-3.73 27.91-7.3 26.33-10.51L26.33-10.51Q25.6-7.99 23.89-1.91L23.89-1.91 22.35 3.57Q21.1 3.57 20.1 2.9 19.11 2.23 19.11 1.22L19.11 1.22Q19.11 0.73 19.35-0.04 19.59-0.81 19.68-1.01L19.68-1.01Q22.8-10.51 24.56-15.27 26.33-20.04 29.61-27.55L29.61-27.55Q27.42-27.1 24.99-25.8L24.99-25.8Q24.75-25.72 24.38-25.54 24.02-25.35 23.85-25.35L23.85-25.35Q23.49-25.35 22.86-25.92 22.23-26.49 22.23-26.94L22.23-26.94Q24.67-27.91 27.06-28.56 29.45-29.21 32.01-29.21L32.01-29.21Q34.69-29.21 37.22-28.38 39.76-27.55 41.42-25.78 43.08-24.02 43.08-21.38L43.08-21.38Q43.08-17.89 40.3-15.94 37.53-14 34.06-13.31 30.59-12.62 27.71-12.54L27.71-12.54 28.76-10.87Q30.71-7.75 32.17-5.68 33.63-3.61 35.76-1.36 37.89 0.89 40.81 3.12L40.81 3.12Q40.65 3.89 39.86 4.4 39.07 4.91 38.34 4.91L38.34 4.91ZM27.26-13.75Q32.41-14.12 36.06-16.25 39.72-18.38 39.72-22.19L39.72-22.19Q39.72-25.07 37.65-26.39 35.58-27.71 32.45-27.79L32.45-27.79Q30.18-23.25 27.26-13.75L27.26-13.75ZM73.18 3.77Q71.52 3.57 70.97 2.64 70.43 1.7 70.43 0.37L70.43 0.37Q70.43-0.16 70.47-0.45L70.47-0.45Q67.18 3.53 63.04 3.53L63.04 3.53Q60.73 3.53 58.82 2.31 56.92 1.1 55.8-1.22 54.69-3.53 54.69-6.65L54.69-6.65Q54.69-11.76 57.26-17.04 59.84-22.31 63.83-25.74 67.83-29.17 71.81-29.17L71.81-29.17Q74.28-29.17 75.46-27.81 76.63-26.45 76.63-24.38L76.63-24.38Q76.63-22.92 76.11-21.5 75.58-20.08 74.71-19.17 73.83-18.26 72.82-18.26L72.82-18.26Q72.29-18.26 71.89-18.56 71.48-18.86 71.12-19.59L71.12-19.59Q71.72-20 72.49-21.05 73.27-22.11 73.81-23.33 74.36-24.54 74.36-25.48L74.36-25.48Q74.36-26.33 73.81-26.86 73.27-27.38 72.17-27.38L72.17-27.38Q69.21-27.38 66.02-23.91 62.84-20.45 60.71-15.44 58.58-10.43 58.58-6.21L58.58-6.21Q58.58-3.81 59.31-2.05 60.04-0.28 61.28 0.65 62.52 1.58 64.02 1.58L64.02 1.58Q66.13 1.58 67.89-0.18 69.66-1.95 70.75-4.62 71.85-7.3 72.09-9.98L72.09-9.98Q70.1-10.39 67.75-10.39L67.75-10.39Q67.02-10.39 65.07-10.3L65.07-10.3Q65.44-11.72 66.23-12.39 67.02-13.06 68.32-13.06L68.32-13.06Q69.29-13.06 70.3-12.8 71.32-12.54 72.86-12.01L72.86-12.01Q74.56-11.36 75.78-11.12L75.78-11.12Q74-5.6 73.53-3.75 73.06-1.91 73.06-0.04L73.06-0.04 73.1 1.87Q73.18 3 73.18 3.77L73.18 3.77ZM97.24 4.91Q95.74 4.91 93.51 2.37 91.28-0.16 89.05-3.73 86.82-7.3 85.23-10.51L85.23-10.51Q84.5-7.99 82.8-1.91L82.8-1.91 81.26 3.57Q80 3.57 79.01 2.9 78.01 2.23 78.01 1.22L78.01 1.22Q78.01 0.73 78.26-0.04 78.5-0.81 78.58-1.01L78.58-1.01Q81.7-10.51 83.47-15.27 85.23-20.04 88.52-27.55L88.52-27.55Q86.33-27.1 83.89-25.8L83.89-25.8Q83.65-25.72 83.29-25.54 82.92-25.35 82.76-25.35L82.76-25.35Q82.39-25.35 81.76-25.92 81.14-26.49 81.14-26.94L81.14-26.94Q83.57-27.91 85.96-28.56 88.36-29.21 90.91-29.21L90.91-29.21Q93.59-29.21 96.13-28.38 98.66-27.55 100.32-25.78 101.99-24.02 101.99-21.38L101.99-21.38Q101.99-17.89 99.21-15.94 96.43-14 92.96-13.31 89.49-12.62 86.61-12.54L86.61-12.54 87.67-10.87Q89.61-7.75 91.08-5.68 92.54-3.61 94.67-1.36 96.8 0.89 99.72 3.12L99.72 3.12Q99.55 3.89 98.76 4.4 97.97 4.91 97.24 4.91L97.24 4.91ZM86.17-13.75Q91.32-14.12 94.97-16.25 98.62-18.38 98.62-22.19L98.62-22.19Q98.62-25.07 96.55-26.39 94.48-27.71 91.36-27.79L91.36-27.79Q89.09-23.25 86.17-13.75L86.17-13.75ZM110.79 3.53Q108.4 3.53 106.45 2.29 104.5 1.05 103.39-1.26 102.27-3.57 102.27-6.65L102.27-6.65Q102.27-11.76 104.85-17.04 107.42-22.31 111.56-25.74 115.7-29.17 120.04-29.17L120.04-29.17Q121.7-29.17 122.8-28.03L122.8-28.03Q122.15-28.11 121.62-28.11L121.62-28.11Q118.22-28.11 114.67-24.71 111.12-21.3 108.8-16.19 106.49-11.08 106.49-6.41L106.49-6.41Q106.49-2.92 107.89-0.67 109.29 1.58 112.21 1.58L112.21 1.58Q115.74 1.58 118.68-1.78 121.62-5.15 123.31-10.16 124.99-15.17 124.99-19.72L124.99-19.72Q124.99-21.95 124.56-23.75 124.14-25.56 123.16-25.56L123.16-25.56Q122.31-25.56 121.2-24.12 120.08-22.68 119.15-20.65 118.22-18.62 117.89-17L117.89-17Q115.33-17.53 115.33-19.35L115.33-19.35Q115.33-20.77 116.67-22.64 118.01-24.5 119.88-25.86 121.74-27.22 123.25-27.22L123.25-27.22Q125.4-27.22 126.25-24.5 127.1-21.78 127.1-18.26L127.1-18.26Q127.1-11.76 124.54-6.8 121.99-1.83 118.19 0.85 114.4 3.53 110.79 3.53L110.79 3.53ZM151.4 4.02Q149.9 4.02 148.82 2.7 147.75 1.38 147.75-0.53L147.75-0.53 147.83-2.64Q144.46 3.57 139.19 3.57L139.19 3.57Q136.47 3.57 134.95 1.95 133.43 0.32 133.43-2.6L133.43-2.6Q133.43-4.54 134-6.77 134.56-9.01 135.78-12.74L135.78-12.74Q137-16.51 137.65-19.07 138.3-21.62 138.3-23.85L138.3-23.85Q138.3-27.51 136.11-27.51L136.11-27.51Q134.77-27.51 133.83-26.41 132.9-25.31 132.43-23.81 131.97-22.31 131.97-21.22L131.97-21.22Q131.97-19.96 132.49-18.62L132.49-18.62Q130.63-18.62 129.76-19.47 128.88-20.32 128.88-21.74L128.88-21.74Q128.88-23.41 129.98-25.15 131.08-26.9 132.96-28.03 134.85-29.17 137.08-29.17L137.08-29.17Q139.47-29.17 140.63-27.79 141.78-26.41 141.78-23.94L141.78-23.94Q141.78-21.95 141.16-19.37 140.53-16.8 139.35-13.06L139.35-13.06Q138.13-9.17 137.59-6.96 137.04-4.75 137.04-3.04L137.04-3.04Q137.04-1.01 137.85 0.18 138.66 1.38 140.41 1.38L140.41 1.38Q142.47 1.38 144.18-0.28 145.88-1.95 147.02-4.38 148.15-6.82 148.72-9.21L148.72-9.21Q150.95-18.34 152.66-23.75 154.36-29.17 155.94-29.17L155.94-29.17Q156.35-29.17 157.06-28.74 157.77-28.32 158.54-27.59L158.54-27.59Q157.77-27.02 155.88-22.11 154-17.2 152.52-11.36 151.03-5.52 151.03-1.78L151.03-1.78Q151.03-0.08 151.4 0.79 151.76 1.66 152.58 2.01 153.39 2.35 154.85 2.35L154.85 2.35Q154.4 3.08 153.37 3.55 152.33 4.02 151.4 4.02L151.4 4.02ZM162.07 3.53Q160.81 3.53 159.76 2.86 158.7 2.19 158.7 1.22L158.7 1.22Q158.7 0.53 159.23-1.05L159.23-1.05Q162.35-10.63 164.26-15.98 166.17-21.34 168.92-27.46L168.92-27.46Q166.86-26.98 164.67-25.84L164.67-25.84Q163.69-25.35 163.49-25.35L163.49-25.35Q163.12-25.35 162.54-25.94 161.95-26.53 161.95-26.94L161.95-26.94Q167.38-29.21 171.48-29.21L171.48-29.21Q174.16-29.21 176.77-28.28 179.39-27.34 181.1-25.54 182.8-23.73 182.8-21.26L182.8-21.26Q182.8-17.36 179.68-15.25 176.55-13.14 172.84-12.43 169.13-11.72 166.57-11.72L166.57-11.72 166.33-11.72 164.06-3.57Q163.2-0.32 162.07 3.53L162.07 3.53ZM166.69-12.98Q169.94-13.18 172.84-14.24 175.74-15.29 177.59-17.24 179.43-19.19 179.43-21.91L179.43-21.91Q179.43-24.71 177.28-26.21 175.13-27.71 172.05-27.79L172.05-27.79Q169.61-23.08 166.69-12.98L166.69-12.98Z" transform="translate(0.7300000190734863, 29.209999084472656)"></path></g> <!----> <!----> <!----> <!----> <!----> <!----> <!----></g></g> <!----></g></g><defs v-gra="od"></defs></svg>